<svg width="20" height="17" fill="none" xmlns="http://www.w3.org/2000/svg"><path d="M6 4v0c0-.93188 0-1.39782.15224-1.76537.20299-.49005.59234-.8794 1.08239-1.08239C7.60218 1 8.06812 1 9 1h2c.9319 0 1.3978 0 1.7654.15224.49.20299.8794.59234 1.0824 1.08239C14 2.60218 14 3.06812 14 4v0M1 10h18M7 16h6c2.8284 0 4.2426 0 5.1213-.8787C19 14.2426 19 12.8284 19 10v0c0-2.82843 0-4.24264-.8787-5.12132C17.2426 4 15.8284 4 13 4H7c-2.82843 0-4.24264 0-5.12132.87868C1 5.75736 1 7.17157 1 10v0c0 2.8284 0 4.2426.87868 5.1213C2.75736 16 4.17157 16 7 16Z" stroke="#18181B" stroke-width="1.5" stroke-linecap="round"/></svg>
