<svg width="22" height="20" fill="none" xmlns="http://www.w3.org/2000/svg"><path d="M15 6.5c0 .27614-.2239.5-.5.5s-.5-.22386-.5-.5.2239-.5.5-.5.5.22386.5.5Z" fill="#151515"/><path d="M13.298 13.0554c-.2929.2929-.2929.7677 0 1.0606.2929.2929.7678.2929 1.0607 0l-1.0607-1.0606Zm6.1569 2.9748c.2929.2929.7678.2929 1.0607 0 .2928-.2929.2928-.7677 0-1.0606l-1.0607 1.0606Zm-5.2427-.9999c.2929.2929.7678.2929 1.0607 0 .2929-.2929.2929-.7677 0-1.0606l-1.0607 1.0606Zm-8.16202-3.5658-.53033-.5304.53033.5304Zm2.82843-2.00003v.75003-.75003ZM2.67157 17.3284l-.53033.5304.53033-.5304Zm16.65683 0-.5303-.5303.5303.5303Zm-4.1441-4.8834-.287-.6929.287.6929Zm1.5308 0 .287-.6929-.287.6929ZM9.5 2.25h3V.75h-3v1.5ZM19.75 9.5v1h1.5v-1h-1.5Zm-7.25 8.25h-3v1.5h3v-1.5ZM2.25 10.5v-1H.75v1h1.5Zm15.2907 3.616 1.9142 1.9142 1.0607-1.0606-1.9143-1.9142-1.0606 1.0606Zm-6.364-2.1212 3.0355 3.0355 1.0607-1.0606-3.0355-3.0356-1.0607 1.0607ZM2.53033 16.045l4.05018-4.0502-1.06066-1.0607-4.05018 4.0502 1.06066 1.0607ZM14.25 6.5c0-.13807.1119-.25.25-.25v1.5c.6904 0 1.25-.55964 1.25-1.25h-1.5Zm.25-.25c.1381 0 .25.11193.25.25h-1.5c0 .69036.5596 1.25 1.25 1.25v-1.5Zm.25.25c0 .13807-.1119.25-.25.25v-1.5c-.6904 0-1.25.55964-1.25 1.25h1.5Zm-.25.25c-.1381 0-.25-.11193-.25-.25h1.5c0-.69036-.5596-1.25-1.25-1.25v1.5Zm-2.2626 4.1841c-.6517-.6516-1.1927-1.19487-1.679-1.5659-.5036-.38423-1.03566-.65373-1.67979-.65373v1.50003c.18429 0 .39976.0638.76994.3462.38745.2957.84645.7524 1.52815 1.4341l1.0607-1.0607Zm-5.65689 1.0607c.68166-.6817 1.14068-1.1384 1.52816-1.4341.37017-.2824.58564-.3462.76994-.3462V8.71447c-.64413 0-1.17621.2695-1.67981.65373-.48629.37103-1.02727.9143-1.67895 1.5659l1.06066 1.0607ZM9.5 17.75c-1.90682 0-3.26149-.0016-4.28915-.1398-1.00609-.1352-1.58574-.3889-2.00895-.8121l-1.06066 1.0607c.74837.7483 1.69731 1.0804 2.86974 1.2381 1.15084.1547 2.6246.1531 4.48902.1531v-1.5ZM.75 10.5c0 1.8644-.001593 3.3382.153135 4.489.157625 1.1724.489745 2.1214 1.238105 2.8698l1.06066-1.0607c-.42321-.4232-.67688-1.0029-.81214-2.0089C2.25159 13.7615 2.25 12.4068 2.25 10.5H.75Zm19 0c0 1.9068-.0016 3.2615-.1398 4.2892-.1352 1.006-.3889 1.5857-.8121 2.0089l1.0607 1.0607c.7483-.7484 1.0804-1.6974 1.2381-2.8698.1547-1.1508.1531-2.6246.1531-4.489h-1.5Zm-7.25 8.75c1.8644 0 3.3382.0016 4.489-.1531 1.1724-.1577 2.1214-.4898 2.8698-1.2381l-1.0607-1.0607c-.4232.4232-1.0029.6769-2.0089.8121-1.0277.1382-2.3824.1398-4.2892.1398v1.5Zm0-17c1.9068 0 3.2615.00159 4.2892.13976 1.006.13526 1.5857.38893 2.0089.81214l1.0607-1.06066c-.7484-.74836-1.6974-1.08048-2.8698-1.238105C15.8382.748407 14.3644.75 12.5.75v1.5Zm8.75 7.25c0-1.86442.0016-3.33818-.1531-4.48902-.1577-1.17243-.4898-2.12137-1.2381-2.86974L18.7981 3.2019c.4232.42321.6769 1.00286.8121 2.00895.1382 1.02766.1398 2.38233.1398 4.28915h1.5Zm-6.8913 4.616c.3367-.3367.563-.5624.7499-.7254.1819-.1587.2856-.2207.3627-.2527l-.574-1.3858c-.2904.1203-.5352.2991-.7747.5081-.2344.2044-.5023.4729-.8246.7952l1.0607 1.0606Zm4.2426-1.0606c-.3222-.3223-.5901-.5908-.8245-.7952-.2396-.209-.4843-.3878-.7747-.5081l-.5741 1.3858c.0772.032.1809.094.3628.2527.1869.163.4132.3887.7499.7254l1.0606-1.0606Zm-3.13.0825c.3063-.1268.6505-.1268.9567 0l.5741-1.3858c-.6739-.2791-1.431-.2791-2.1048 0l.574 1.3858ZM9.5.75C7.63558.75 6.16182.748407 5.01098.903135c-1.17243.157625-2.12137.489745-2.86974 1.238105L3.2019 3.2019c.42321-.42321 1.00286-.67688 2.00895-.81214C6.23851 2.25159 7.59318 2.25 9.5 2.25V.75ZM2.25 9.5c0-1.90682.00159-3.26149.13976-4.28915.13526-1.00609.38893-1.58574.81214-2.00895L2.14124 2.14124c-.74836.74837-1.08048 1.69731-1.238105 2.86974C.748407 6.16182.75 7.63558.75 9.5h1.5Z" fill="#151515"/></svg>
