<svg width="128" height="128" viewBox="0 0 128 128" fill="none" xmlns="http://www.w3.org/2000/svg">
<circle cx="64" cy="64" r="64" fill="#F6F6F3"/>
<path d="M61.8264 68.1573C115.43 71.8565 96.055 106.531 62.8592 105.077C29.6617 103.619 6.24257 64.2793 61.8264 68.1573ZM110.194 51.5366C126.706 67.0522 108.154 85.6867 96.1221 69.8581C84.0918 54.0312 99.2297 41.2555 110.194 51.5366ZM66.5157 32.2008C89.8253 34.5603 88.4259 59.5933 68.3413 54.7265C48.2567 49.8597 51.0856 30.6169 66.5157 32.2008ZM35.2124 57.7561C14.4007 67.7395 0.478987 46.0613 20.2101 39.9215C39.9411 33.7836 49.0103 51.1422 35.2124 57.7561Z" fill="#FD590D"/>
</svg>
