<svg width="136" height="32" fill="none" xmlns="http://www.w3.org/2000/svg"><path d="M21.2997 15.8058c22.333 1.5704 14.2613 16.2818.4309 15.6642-13.83106-.6192-23.58878-17.3105-.4309-15.6642Zm20.1511-7.05104c6.8796 6.58324-.8492 14.48914-5.8624 7.77324-5.0124-6.71524 1.2943-12.13545 5.8624-7.77324ZM23.2529.55033c9.7115 1.00146 9.1289 11.62237.7609 9.55717-8.3679-2.06516-7.1896-10.229424-.7609-9.55717ZM10.2114 11.3924C1.54078 15.6278-4.25975 6.42999 3.9607 3.82534c8.2205-2.60389 11.9992 4.76112 6.2507 7.56706ZM102.618 21.8623V10.1342c0-1.61856-1.313-2.93199-2.9316-2.93199s-2.932 1.31343-2.932 2.93199v11.7281c0 1.6186 1.3134 2.9321 2.932 2.9321s2.9316-1.3135 2.9316-2.9321ZM62.1673 9.84275c0-1.45744-1.1831-2.64052-2.6405-2.64052h-5.8949c-1.2963 0-2.3457 1.04935-2.3457 2.34561V22.4487c0 1.2963 1.0494 2.3457 2.3457 2.3457h1.1728c1.2962 0 2.3456-1.0494 2.3456-2.3457v-3.4258h1.8175c1.4849 0 2.6851-1.2037 2.6851-2.6851 0-1.4849-1.2036-2.6851-2.6851-2.6851h-1.8175v-1.1728h2.3765c1.4609.0034 2.6405-1.1797 2.6405-2.63715ZM75.7984 7.20221c-1.6186 0-2.932 1.31338-2.932 2.93199v7.1466c0 .9122-.7372 1.6495-1.6494 1.6495s-1.6495-.7373-1.6495-1.6495v-7.1466c0-1.61861-1.3135-2.93199-2.9321-2.93199-1.6186 0-2.932 1.31338-2.932 2.93199v7.1466c0 4.1494 3.3642 7.5135 7.5136 7.5135s7.5135-3.3641 7.5135-7.5135v-7.1466c0-1.61861-1.3135-2.93199-2.9321-2.93199ZM117.556 10.1342c0-1.61861-1.313-2.93199-2.932-2.93199h-7.538c-1.618 0-2.932 1.31338-2.932 2.93199 0 1.6186 1.314 2.932 2.932 2.932h.837v8.7961c0 1.6186 1.314 2.932 2.932 2.932 1.619 0 2.932-1.3134 2.932-2.932v-8.7961h.837c1.619 0 2.932-1.3099 2.932-2.932ZM126.638 7.20221c-4.732 0-8.57 3.94019-8.57 8.79599 0 4.8593 3.838 8.7961 8.57 8.7961s8.57-3.9402 8.57-8.7961c0-4.8558-3.838-8.79599-8.57-8.79599Zm0 11.82409c-1.578 0-2.857-1.3546-2.857-3.0246 0-1.6701 1.279-3.0246 2.857-3.0246 1.577 0 2.857 1.3545 2.857 3.0246 0 1.67-1.28 3.0246-2.857 3.0246ZM93.4144 19.3144c1.1214-1.286 1.8038-2.9664 1.8038-4.8044 0-4.0363-3.2715-7.30779-7.3078-7.30779-.0068 0-4.7872.00339-4.7872.00339-1.5844.04115-2.8566 1.334-2.8566 2.9286v11.7281c0 1.6186 1.3134 2.932 2.932 2.932s2.932-1.3134 2.932-2.932v-.048h1.7112c.024 0 .0446.0034.0686.0034.1578 0 .3121-.0068.4664-.0171l1.0014 1.6495c.5075.8367 1.4128 1.3477 2.3902 1.3477 2.181 0 3.5218-2.3834 2.3902-4.2489l-.7442-1.2345Zm-5.672-3.2956H85.622v-3.0212h2.117c.8333 0 1.5089.6756 1.5089 1.5089 0 .8333-.6722 1.5123-1.5055 1.5123Z" fill="#FD590D"/></svg>
