<svg viewBox="0 0 45 30" xmlns="http://www.w3.org/2000/svg" xml:space="preserve" style="fill-rule:evenodd;clip-rule:evenodd;stroke-linejoin:round;stroke-miterlimit:2"><path d="M21.3 15.806c22.333 1.57 14.261 16.282.431 15.664C7.9 30.851-1.858 14.16 21.3 15.806Zm20.151-7.051c6.879 6.583-.849 14.489-5.863 7.773-5.012-6.715 1.295-12.135 5.863-7.773ZM23.253.55c9.711 1.002 9.129 11.623.761 9.558-8.368-2.066-7.19-10.23-.761-9.558ZM10.211 11.392C1.541 15.628-4.26 6.43 3.961 3.825c8.22-2.604 11.999 4.761 6.25 7.567Z" style="fill:#fd590d;fill-rule:nonzero" transform="matrix(1 0 0 .93544 -.122227 .00664619)"/></svg>
