<svg width="267" height="61" fill="none" xmlns="http://www.w3.org/2000/svg"><path d="M41.9291 30.108c43.963 3.0913 28.0737 32.0511.8482 30.8353-27.2269-1.2188-46.43517-34.076-.8482-30.8353ZM81.597 16.2278c13.5427 12.9592-1.6717 28.5223-11.5403 15.3018-9.8671-13.2191 2.5478-23.88888 11.5403-15.3018ZM45.7739.0772088C64.8912 2.0486 63.7443 22.9561 47.2719 18.8908 30.7994 14.8254 33.1189-1.24614 45.7739.0772088ZM20.1014 21.4201C3.03307 29.7576-8.38542 11.6515 7.79674 6.52415 23.9789 1.39832 31.4175 15.8965 20.1014 21.4201ZM202.007 42.0304v-23.087c0-3.1863-2.586-5.7718-5.772-5.7718-3.186 0-5.771 2.5855-5.771 5.7718v23.087c0 3.1863 2.585 5.7718 5.771 5.7718s5.772-2.5855 5.772-5.7718ZM122.378 18.3696c0-2.869-2.329-5.198-5.198-5.198h-11.604c-2.552 0-4.618 2.0657-4.618 4.6174v25.3958c0 2.5517 2.066 4.6175 4.618 4.6175h2.308c2.552 0 4.618-2.0658 4.618-4.6175V36.441h3.578c2.923 0 5.285-2.3695 5.285-5.2857 0-2.923-2.369-5.2857-5.285-5.2857h-3.578v-2.3088h4.678c2.876.0068 5.198-2.3222 5.198-5.1912ZM149.211 13.1716c-3.186 0-5.772 2.5854-5.772 5.7717v14.0683c0 1.7956-1.451 3.247-3.247 3.247-1.795 0-3.247-1.4514-3.247-3.247V18.9433c0-3.1863-2.585-5.7717-5.771-5.7717-3.187 0-5.772 2.5854-5.772 5.7717v14.0683c0 8.1682 6.622 14.7905 14.79 14.7905 8.169 0 14.791-6.6223 14.791-14.7905V18.9433c0-3.1863-2.586-5.7717-5.772-5.7717ZM231.412 18.9433c0-3.1863-2.585-5.7717-5.772-5.7717h-14.837c-3.187 0-5.772 2.5854-5.772 5.7717s2.585 5.7718 5.772 5.7718h1.647v17.3153c0 3.1863 2.585 5.7717 5.771 5.7717 3.187 0 5.772-2.5854 5.772-5.7717V24.7151h1.647c3.187 0 5.772-2.5787 5.772-5.7718ZM249.29 13.1716c-9.316 0-16.87 7.7564-16.87 17.3152 0 9.5656 7.554 17.3153 16.87 17.3153s16.87-7.7564 16.87-17.3153c0-9.5588-7.554-17.3152-16.87-17.3152Zm0 23.2761c-3.105 0-5.623-2.6666-5.623-5.9541 0-3.2876 2.518-5.954 5.623-5.954 3.105 0 5.623 2.6664 5.623 5.954 0 3.2875-2.518 5.9541-5.623 5.9541ZM183.889 37.0147c2.207-2.5315 3.55-5.8393 3.55-9.4576 0-7.9455-6.44-14.3855-14.385-14.3855-.014 0-9.424.0067-9.424.0067-3.119.081-5.623 2.626-5.623 5.765v23.0871c0 3.1863 2.585 5.7717 5.772 5.7717 3.186 0 5.771-2.5854 5.771-5.7717v-.0945h3.369c.047 0 .088.0068.135.0068.311 0 .614-.0136.918-.0338l1.971 3.2471c.999 1.6471 2.781 2.6529 4.705 2.6529 4.294 0 6.933-4.6917 4.706-8.364l-1.465-2.4302Zm-11.166-6.4873h-4.174v-5.9473h4.167c1.641 0 2.971 1.3298 2.971 2.9702s-1.323 2.9771-2.964 2.9771Z" fill="#FD590D"/></svg>
