<svg width="268" height="70" fill="none" xmlns="http://www.w3.org/2000/svg"><path d="M48.282 34.1235c50.5885 3.4912 32.3032 36.2155.9747 34.8429-31.3302-1.376-53.43196-38.5028-.9747-34.8429Zm45.6468-15.6858c15.5832 14.6428-1.9249 32.2292-13.2802 17.2909C69.295 20.792 83.5814 8.73487 93.9288 18.4377ZM52.7075.189503C74.7059 2.41629 73.3853 26.0412 54.4305 21.4482 35.4756 16.8552 38.1454-1.30529 52.7075.189503ZM23.165 24.3074C3.52394 33.7292-9.61465 13.2704 9.00656 7.47599 27.6278 1.68326 36.1868 18.0655 23.165 24.3074ZM130.074 33.6301c1.306.0152 2.806-.3667 4.276-.9516 1.903-.7607 2.922.0121 2.625 2.0972-.397 2.8064-2.125 4.7279-4.473 6.1371-1.27.7638-2.695 1.2638-4.149 1.2972-1.292.0303-1.413.6364-1.467 1.6608-.228 4.0944-.658 8.1555-2.652 11.859-1.47 2.7306-3.476 4.8248-6.625 5.534-3.022.6789-6.156-1.0122-7.207-3.9065-.282-.7729-.528-1.482.77-1.776 1.636-.3728 2.345-1.8123 2.882-3.258 1.082-2.9246 1.273-6.0128 1.542-9.0738.57-6.4857 1.019-12.9804 1.007-19.4963-.006-2.2427.315-4.446 1.321-6.4675 2.109-4.249 5.619-6.3584 10.325-6.4159 4.089-.0485 8.174.0182 12.193-.94257 1.779-.42429 3.473-1.0274 5.119-1.81235 2.167-1.03346 3.546-.08182 3.346 2.33662-.207 2.4609-1.246 4.5612-3.034 6.2584-2.667 2.5306-6.04 3.3489-9.535 3.761-2 .2364-4.024.3395-6.04.394-.967.0273-1.43.2576-1.521 1.3214-.27 3.1671-.664 6.322-.973 9.486-.209 2.1033-.179 2.1063 2.27 1.9578ZM189.563 40.5795c2.137 2.076 3.437 4.5763 4.691 7.1099.925 1.8669 1.989 3.6217 3.934 4.6552.988.5243.412 1.2577-.006 1.7608-.979 1.1698-2.276 1.8214-3.821 1.8881-3.113.1303-5.565-1.1759-7.514-3.5277-1.6-1.9336-2.503-4.2429-3.458-6.522-.39-.9304-.772-1.8639-1.221-2.764-.406-.8152-.93-1.5638-1.688-2.1093-.752-.5395-1.646-1.1214-2.497-.8304-.797.2727-.397 1.3274-.47 2.0184-.288 2.7094-.458 5.4279-.697 8.1404-.085.9728-.43 1.8669-1.043 2.6397-1.139 1.4426-2.648 1.9699-4.43 1.679-1.686-.2788-2.634-1.3881-3.095-2.961-.679-2.3154-.754-4.6975-.485-7.0584.649-5.6613 1.334-11.3226 2.307-16.9415.085-.497.191-.991.312-1.4789 1.027-4.1339 2.291-5.1886 6.576-5.531 4.343-.3486 8.692-.5031 12.935.6637 3.898 1.0728 7.041 3.164 8.035 7.3857 1.021 4.3369-1.322 8.5708-5.765 10.7074-.8.3819-1.642.6819-2.6 1.0759Zm-9.265-4.9309c1.464-.0788 3.419-.2879 5.237-1.1305 1.643-.7637 2.425-1.9244 2.316-3.3822-.106-1.4456-1.085-2.5457-2.755-3.0519-1.828-.5546-3.695-.3697-5.559-.2727-.666.0333-.815.4576-.884 1.0001-.213 1.6487-.464 3.2943-.646 4.9461-.215 1.9638-.191 1.9669 2.291 1.8911ZM236.648 41.8797c.066-8.4768 5.506-16.7748 12.841-19.5873 9.446-3.6246 18.132 2.1609 18.011 12.2773-.097 8.1889-3.716 14.6775-10.868 18.8811-6.113 3.5913-13.793 2.079-17.645-3.2792-1.782-2.4761-2.357-5.3037-2.339-8.2919Zm21.921-7.1282c.024-4.2368-2.301-6.3886-5.689-5.734-1.594.3061-2.849 1.2274-3.837 2.5033-1.818 2.3579-2.973 5.0128-3.44 7.9465-.197 1.2456-.166 2.5033.206 3.7398.882 2.9216 3.213 4.1369 6.122 3.161 1.698-.5698 2.955-1.6941 3.919-3.161 1.794-2.7215 2.525-5.7764 2.719-8.4556ZM139.063 43.3283c.173-4.5248 1.431-8.5859 2.503-12.6803.564-2.1427 1.067-4.3157 2.004-6.3372 1.276-2.7458 4.115-4.0732 6.731-3.2276 2.212.7152 3.294 2.4427 2.7 4.6854-1.112 4.1884-2.646 8.2586-3.552 12.5045-.37 1.7275-.785 3.455-.512 5.2401.421 2.7518 2.991 3.7762 5.179 2.0335 1.892-1.5062 2.613-3.6671 3.058-5.9219 1.037-5.243 2.025-10.4952 3.04-15.7413.085-.4455.185-.894.337-1.3183.394-1.1062 1.124-1.8548 2.37-1.6821C164.239 21.068 165.5 21 166 22.5s0 5.2567 0 5.2567c-.5 5.7575-1.127 10.1255-2.5 15.4231-.749 2.8913-3.197 6.8644-5.5 8.8101-3.694 3.1185-8.196 3.7157-12.676 1.7973-4.609-1.973-6.064-6.022-6.261-10.4589Z" fill="#F64E00"/><path d="M241.3 20.2437c.803-.0848 1.658-.794 2.385.1061.712.8819.618 1.9093.236 2.8822-1.033 2.6366-3.076 4.0429-5.791 4.5338-1.846.3365-3.722.3577-5.589.2667-1.012-.0484-1.427.1728-1.679 1.2881-1.494 6.6099-2.573 13.2743-3.133 20.0236-.058.7001-.204 1.4032-.398 2.076-.59 2.0518-2.203 3.3368-4.158 3.3762-2.076.0394-3.591-1.0334-4.315-3.1337-.994-2.8761-.522-5.8007-.14-8.698.616-4.6612 1.758-9.2133 3.067-13.7199.285-.9849.185-1.3274-.945-1.2729-1.558.0758-3.134.0546-4.686-.0969-1.773-.1728-2.739-1.1275-3.03-2.6882-.291-1.5669.357-3.0277 1.797-3.846 1.491-.8486 3.134-1.0456 4.822-.9759.239.4213.648.4122 1.054.4122 6.477 0 12.953.003 19.433 0 .436.003.94.1 1.07-.5334ZM199.307 47.462c.36-5.2006 1.766-10.4285 2.721-15.7322.403-2.2306.876-4.449 1.415-6.6493.397-1.6184 1.27-2.9488 2.822-3.7489 2.773-1.4244 5.679.1727 5.955 3.2822.137 1.5274-.148 3.0216-.427 4.5066-1.188 6.2947-2.361 12.5864-2.937 18.9781-.139 1.5608-.473 3.1004-1.288 4.4733-.924 1.5577-2.291 2.3881-4.134 2.282-1.845-.1091-2.915-1.2577-3.549-2.8639-.545-1.3851-.624-2.8489-.578-4.5279ZM213.193 14.3762c-.078 2.4639-2.039 4.5157-4.252 4.4429-2.033-.0666-3.664-2.0154-3.585-4.2914.082-2.4579 1.815-4.2399 4.061-4.1702 2.288.0667 3.849 1.7305 3.776 4.0187Z" fill="#F64E00"/></svg>
